<svg width="250" height="49" viewBox="0 0 250 49" fill="none" xmlns="http://www.w3.org/2000/svg">
<path d="M15.7948 48.7804C9.67281 48.7804 4.7507 47.9968 1.0285 46.4295V39.3769C3.13448 40.1606 5.38739 40.7972 7.78723 41.287C10.236 41.7768 12.6604 42.0217 15.0602 42.0217C18.8314 42.0217 21.6475 41.5809 23.5086 40.6993C25.4187 39.8177 26.3737 38.0546 26.3737 35.4099C26.3737 33.7936 25.9819 32.4958 25.1983 31.5162C24.4147 30.5367 23.1168 29.7041 21.3047 29.0184C19.4926 28.2838 16.9948 27.5247 13.8113 26.7411C8.71778 25.4187 5.14251 23.7535 3.08551 21.7455C1.0285 19.6885 0 16.8723 0 13.2971C0 9.13408 1.51826 5.87715 4.55479 3.52629C7.59132 1.17543 12.1216 0 18.1457 0C20.8884 0 23.4596 0.195907 25.8595 0.587718C28.3083 0.979529 30.2184 1.42031 31.5897 1.91008V8.96266C27.8675 7.54235 23.7535 6.83219 19.2477 6.83219C15.7214 6.83219 12.9787 7.29747 11.0197 8.22802C9.06061 9.15857 8.08109 10.8482 8.08109 13.2971C8.08109 14.7174 8.42392 15.8683 9.10959 16.7499C9.79526 17.6315 10.9707 18.3906 12.6359 19.0273C14.35 19.664 16.7009 20.3741 19.6885 21.1578C23.5576 22.1373 26.5451 23.3127 28.6511 24.684C30.8061 26.0064 32.2999 27.5736 33.1325 29.3858C34.014 31.1489 34.4548 33.1569 34.4548 35.4099C34.4548 39.5728 32.9121 42.8542 29.8266 45.2541C26.741 47.6049 22.0638 48.7804 15.7948 48.7804Z" fill="#C1BFBC"/>
<path d="M36.8057 48.0457L54.8779 0.734644H63.8406L81.7659 48.0457H73.5379L68.8362 35.8506H49.8089L45.1072 48.0457H36.8057ZM51.0578 29.6796H67.5138L59.2858 8.00763L51.0578 29.6796Z" fill="#C1BFBC"/>
<path d="M89.6409 48.0457V0.734644H121.818V6.97912H97.6486V21.3047H119.1V27.4757H97.6486V38.488L89.6409 48.0457Z" fill="#C1BFBC"/>
<path d="M128.167 48.0457V0.734644H161.152V6.97912H136.174V21.3047H158.434V27.4757H136.174V41.8747H161.152V48.0457H128.167Z" fill="#C1BFBC"/>
<path d="M180.826 48.0457V6.97912H165.693V0.734644H203.894V6.97912H188.834V48.0457H180.826Z" fill="#C1BFBC"/>
<path d="M225.096 48.0457V30.4877L208.125 0.734644H216.427L229.063 23.729L241.699 0.734644H250L233.03 30.4877V48.0457H225.096Z" fill="#C1BFBC"/>
</svg>
